<?xml version="1.0" standalone="no"?>
<!DOCTYPE svg PUBLIC "-//W3C//DTD SVG 20010904//EN"
 "http://www.w3.org/TR/2001/REC-SVG-20010904/DTD/svg10.dtd">
<svg version="1.0" xmlns="http://www.w3.org/2000/svg"
 width="512.000000pt" height="512.000000pt" viewBox="0 0 512.000000 512.000000"
 preserveAspectRatio="xMidYMid meet">
<metadata>
Created by potrace 1.16, written by Peter Selinger 2001-2019
</metadata>
<g transform="translate(0.000000,512.000000) scale(0.100000,-0.100000)"
fill="#000000" stroke="none">
<path d="M2100 3534 c-250 -377 -457 -687 -461 -690 -4 -2 -64 30 -134 72 -69
42 -127 74 -128 73 -2 -2 -312 -469 -690 -1036 -378 -568 -687 -1037 -687
-1043 0 -7 859 -10 2560 -10 1562 0 2560 4 2560 9 0 5 -389 595 -865 1310
l-866 1301 -179 0 -180 0 -232 350 c-128 192 -235 350 -238 350 -3 0 -210
-309 -460 -686z m613 -104 l147 -220 180 0 180 0 312 -467 c171 -258 389 -586
484 -731 l173 -262 -207 157 c-114 87 -373 284 -576 438 -202 154 -374 279
-381 279 -7 -1 -115 -77 -241 -170 -125 -93 -233 -168 -238 -166 -6 2 -153 90
-327 195 l-316 191 325 488 c179 268 328 488 332 488 4 0 73 -99 153 -220z
m-720 -1175 l445 -270 177 -375 c98 -206 180 -381 182 -388 4 -9 -222 -12
-1110 -12 l-1116 0 451 680 451 679 37 -22 c20 -12 237 -143 483 -292z m1712
-530 l677 -515 -617 2 -617 3 -194 410 c-107 226 -193 413 -191 417 2 7 255
198 262 198 1 0 308 -232 680 -515z"/>
</g>
</svg>
